<?xml version="1.0" encoding="UTF-8"?>
<!DOCTYPE svg PUBLIC "-//W3C//DTD SVG 1.1//EN" "http://www.w3.org/Graphics/SVG/1.1/DTD/svg11.dtd">
<!-- Creator: CorelDRAW X7 -->
<svg xmlns="http://www.w3.org/2000/svg" xml:space="preserve" width="54mm" height="51mm" version="1.1" style="shape-rendering:geometricPrecision; text-rendering:geometricPrecision; image-rendering:optimizeQuality; fill-rule:evenodd; clip-rule:evenodd"
viewBox="0 0 5400 5100"
 xmlns:xlink="http://www.w3.org/1999/xlink">
 <defs>
  <style type="text/css">
   <![CDATA[
    .fil0 {fill:black}
   ]]>
  </style>
 </defs>
 <g id="Camada_x0020_1">
  <metadata id="CorelCorpID_0Corel-Layer"/>
  <g id="_244355808">
   <path class="fil0" d="M2334 2710c208,0 312,-25 241,96 -39,66 -94,94 -171,115 -58,-39 -286,-211 -70,-211zm875 -487c-48,-98 -36,-42 -39,-180 117,62 65,2 140,105l-101 75zm-1572 -637c0,-148 109,-227 209,-281 122,231 142,297 523,386 -123,234 -170,246 -418,246 -193,0 -314,-158 -314,-351zm2753 -843l139 0 0 843 -139 0 0 -843zm696 843l-278 0 0 -1019 383 0 0 914c0,80 -24,105 -105,105zm-4293 -570c102,206 60,155 43,359 -163,-38 -130,-64 -244,-140l201 -219zm601 570c0,742 1054,773 1184,211 181,4 185,56 348,70 0,318 -7,278 105,492l-181 204c-211,-42 -418,-213 -829,6 -64,-96 -146,-176 -239,-251 -144,-115 -678,-591 -772,-732 162,-699 156,-65 0,-738l181 -204c306,160 493,155 795,-6 59,89 60,109 174,140l0 70c-282,24 8,29 -471,263 -177,86 -295,264 -295,475zm836 -1054c288,-67 260,-140 627,-140 420,0 845,454 1289,491 0,524 152,1054 -558,1054 -356,0 -190,-153 -770,-347 -331,-110 -728,-175 -728,-390 0,-305 617,-27 809,27 125,36 205,72 329,98 192,40 186,-11 186,-196 -442,-104 -946,-237 -1184,-597zm-627 -246c86,59 143,96 174,211l-349 0c35,-131 70,-155 175,-211zm-1324 914l1861 1811c132,104 153,148 299,226 261,-177 358,-336 584,-536 69,-61 86,-62 156,-123 240,-214 276,-367 480,-394 251,-34 311,-31 501,-198l142 -138c188,-133 1098,156 1098,-157l0 -1264c0,-173 -275,-106 -732,-106 -110,0 -118,87 -139,176 -211,0 -337,-33 -383,141 -725,-171 -1006,-823 -2125,-281 -55,-83 -103,-129 -189,-197 -363,-288 -273,-150 -588,116 -141,118 -201,170 -329,300 -219,221 -437,393 -636,624z"/>
   <path class="fil0" d="M209 4607l0 -914 383 0 0 1019 -278 0c-81,0 -105,-24 -105,-105zm662 -914l139 0 0 808 -139 0 0 -808zm1115 352c0,116 94,121 200,150 702,190 1039,429 1327,19 85,-122 70,-91 361,-162 379,-94 760,-281 760,63 0,166 -748,363 -963,435 -947,318 -986,488 -1706,112 -294,-153 -403,-266 -711,-266 0,-569 -84,-803 179,-979 469,-315 645,82 1115,237 303,100 762,172 762,391 0,304 -648,33 -794,-8 -143,-40 -530,-242 -530,8zm-1986 -492l0 1264c0,174 275,106 732,106 110,0 118,-87 139,-176 729,0 49,-336 1010,141 865,430 1138,138 2348,-268 268,-90 485,-137 621,-359 108,-176 103,-568 -460,-568 -140,0 -777,166 -871,211 -74,-278 -551,-367 -832,-461 -350,-117 -195,-40 -417,-212 -633,-488 -1132,180 -1233,208 -270,75 -1037,-116 -1037,114z"/>
   <path class="fil0" d="M1603 3939c0,193 243,85 243,0 0,-186 -243,-181 -243,0z"/>
   <path class="fil0" d="M3554 1305c0,155 243,213 243,35 0,-89 26,-27 -104,-140 -44,23 -139,48 -139,105z"/>
  </g>
 </g>
</svg>
